<?xml version="1.0" standalone="no"?>
<!DOCTYPE svg PUBLIC "-//W3C//DTD SVG 20010904//EN"
 "http://www.w3.org/TR/2001/REC-SVG-20010904/DTD/svg10.dtd">
<svg version="1.0" xmlns="http://www.w3.org/2000/svg"
 width="1536.000000pt" height="1952.000000pt" viewBox="0 0 1536.000000 1952.000000"
 preserveAspectRatio="xMidYMid meet">

<g transform="translate(0.000000,1952.000000) scale(0.100000,-0.100000)"
fill="#333333" stroke="none">
<path d="M0 9760 l0 -9760 7680 0 7680 0 0 9760 0 9760 -7680 0 -7680 0 0
-9760z m10690 9664 c86 -26 120 -66 178 -211 106 -267 131 -411 142 -823 7
-275 12 -336 36 -475 36 -206 41 -500 11 -628 -45 -188 -153 -331 -309 -406
-129 -61 -212 -76 -418 -75 -174 1 -181 2 -900 118 -946 153 -1089 181 -1147
230 -15 12 -62 45 -103 73 l-75 50 -76 -71 c-157 -147 -327 -216 -534 -216
-196 0 -371 67 -516 198 l-59 54 -53 -35 c-165 -108 -197 -128 -228 -141 -78
-32 -190 -50 -1304 -203 -453 -62 -503 -67 -670 -67 -153 0 -193 3 -269 22
-312 78 -467 282 -483 637 -6 147 4 262 47 495 22 123 30 199 35 360 12 387
52 616 148 856 78 193 88 207 172 246 45 21 65 23 185 22 111 0 156 -5 255
-28 292 -68 689 -223 1185 -463 381 -184 953 -499 1004 -552 17 -17 33 -31 38
-31 4 0 29 16 55 36 62 47 162 97 253 125 108 34 302 34 410 1 83 -26 171 -68
237 -113 l43 -30 74 63 c59 50 134 94 367 215 608 314 1076 521 1494 658 376
124 613 157 775 109z m-7220 -3448 c0 -7 65 -260 144 -562 275 -1046 1286
-4897 1677 -6389 88 -335 182 -693 209 -795 27 -102 121 -459 209 -795 88
-335 266 -1015 396 -1510 130 -495 297 -1132 371 -1415 75 -283 168 -641 209
-795 41 -154 99 -374 129 -490 52 -198 176 -672 611 -2330 229 -874 215 -819
206 -809 -4 5 -132 189 -283 409 -623 906 -1629 2367 -1661 2412 -18 26 -184
266 -367 533 -183 267 -374 544 -423 615 -50 72 -192 279 -317 460 -125 182
-261 380 -303 440 -42 61 -126 184 -188 275 -62 91 -149 217 -194 280 -44 63
-111 160 -149 215 -37 55 -110 161 -161 235 -52 74 -146 212 -210 305 -64 94
-140 204 -169 245 -29 41 -88 127 -131 190 -44 63 -101 147 -127 185 -27 39
-83 120 -124 180 -97 142 -204 298 -279 405 -130 187 -379 548 -541 785 -60
87 -152 221 -204 297 -125 181 -233 338 -287 417 l-44 64 24 26 c22 24 449
484 688 741 58 63 213 230 343 370 l236 255 -1342 1343 -1343 1343 35 32 c20
18 202 174 405 347 354 301 510 434 1105 942 450 384 1036 884 1270 1083 123
105 300 256 394 336 94 81 174 145 179 142 4 -2 7 -10 7 -17z m9070 -521 c283
-242 589 -503 680 -580 91 -78 260 -222 375 -320 116 -98 253 -215 305 -260
182 -156 578 -493 945 -805 203 -173 385 -329 405 -347 l35 -32 -1343 -1343
-1342 -1343 231 -250 c320 -345 558 -601 798 -860 113 -121 218 -234 233 -251
l28 -30 -181 -265 c-291 -423 -328 -477 -423 -614 -89 -128 -117 -169 -231
-335 -60 -87 -137 -199 -210 -305 -23 -33 -80 -116 -127 -185 -73 -106 -296
-430 -575 -835 -38 -55 -190 -275 -338 -490 -147 -214 -288 -419 -313 -455
-25 -36 -95 -137 -155 -225 -61 -88 -134 -194 -162 -235 -29 -41 -243 -352
-475 -690 -233 -338 -457 -662 -496 -720 -40 -58 -108 -157 -152 -220 -43 -63
-214 -311 -378 -550 -165 -239 -445 -646 -623 -904 -178 -257 -348 -505 -379
-550 -31 -44 -86 -124 -122 -177 -229 -335 -825 -1197 -827 -1195 -1 1 42 170
97 376 54 206 151 575 215 820 64 245 161 614 215 820 54 206 159 607 234 890
74 283 300 1143 501 1910 202 767 438 1667 525 2000 266 1013 680 2591 845
3220 181 690 343 1307 421 1603 30 114 78 300 108 415 30 114 111 423 181 687
69 264 164 626 211 805 47 179 96 366 109 415 13 50 132 504 265 1010 132 506
243 926 245 934 4 9 25 -4 68 -41 34 -30 294 -252 577 -493z m-4825 -30 c212
-54 397 -233 459 -445 25 -85 30 -203 12 -295 -44 -225 -205 -406 -433 -486
-85 -30 -230 -36 -327 -15 -228 51 -408 219 -477 446 -29 95 -31 243 -5 340
58 213 233 389 448 451 80 23 241 25 323 4z m50 -3909 c90 -24 232 -98 306
-160 205 -169 316 -452 280 -711 -44 -319 -259 -569 -571 -667 -64 -20 -95
-23 -220 -23 -166 1 -237 17 -372 87 -286 148 -460 479 -418 796 45 342 290
611 625 686 87 19 283 15 370 -8z m-51 -4216 c240 -61 425 -256 472 -495 18
-92 13 -210 -12 -295 -64 -216 -244 -390 -459 -445 -76 -19 -234 -19 -310 0
-173 44 -338 178 -413 335 -53 113 -67 175 -66 295 1 79 7 117 28 181 103 320
438 507 760 424z"/>
</g>
</svg>
